# xmcd
#
# Track frame offsets:
#  150
#  19890
#  36286
#  48214
#  63829
#  82548
#  97197
#  120451
#  134588
#  153090
#  173048
#
# Disc length: 2558 seconds
#
# Revision: 0
# Processed by: cddbd v1.5.1PL2 Copyright (c) Steve Scherf et al.
# Submitted via: Collectorz.com_Music_Collector 6.10
#
DISCID=8009fc0b
DTITLE=Grantham Road - Parade
DYEAR=2006
DGENRE=
TTITLE0=Parade
TTITLE1=Shallow
TTITLE2=Love Is A Rose
TTITLE3=Wide Awake
TTITLE4=Faster Than You
TTITLE5=I Won't Fight
TTITLE6=Martin Myers
TTITLE7=Change
TTITLE8=Only You
TTITLE9=Stranger
TTITLE10=They Fell Out A Window
EXTD=
EXTT0=
EXTT1=
EXTT2=
EXTT3=
EXTT4=
EXTT5=
EXTT6=
EXTT7=
EXTT8=
EXTT9=
EXTT10=
PLAYORDER=
